<?xml version="1.0" encoding="utf-8"?>
<svg version="1.1" xmlns:xlink="http://www.w3.org/1999/xlink" width="211px" height="42px" xmlns="http://www.w3.org/2000/svg">
  <g transform="matrix(1 0 0 1 -375 -377 )">
    <path d="M 376 404.9  C 376 404.9  376 382  376 382  C 376 379.790861000677  377.790861000677 378  380 378  C 380 378  581 378  581 378  C 583.209138999323 378  585 379.790861000677  585 382  C 585 382  585 404.9  585 404.9  C 585 407.109138999323  583.209138999323 408.9  581 408.9  C 581 408.9  493.75468342154 408.9  493.75468342154 408.9  C 493.75468342154 408.9  483.8518812014 417.64777517529  483.8518812014 417.64777517529  C 483.8518812014 417.64777517529  474.528803915408 408.9  474.528803915408 408.9  C 474.528803915408 408.9  380 408.9  380 408.9  C 377.790861000677 408.9  376 407.109138999323  376 404.9  Z " fill-rule="nonzero" fill="#333333" stroke="none" fill-opacity="0.8" />
  </g>
</svg>