<?xml version="1.0" encoding="utf-8"?>
<svg version="1.1" xmlns:xlink="http://www.w3.org/1999/xlink" width="240px" height="32px" xmlns="http://www.w3.org/2000/svg">
  <defs>
    <mask fill="white" id="clip274">
      <path d="M 0 30  L 0 2  C 0 0.879999999999999  0.879999999999995 0  2 0  L 238 0  C 239.12 0  240 0.879999999999999  240 2  L 240 30  C 240 31.12  239.12 32  238 32  L 52.9999999999999 32  L 2 32  C 0.879999999999995 32  0 31.12  0 30  Z " fill-rule="evenodd" />
    </mask>
  </defs>
  <g transform="matrix(1 0 0 1 -92 -23 )">
    <path d="M 0 30  L 0 2  C 0 0.879999999999999  0.879999999999995 0  2 0  L 238 0  C 239.12 0  240 0.879999999999999  240 2  L 240 30  C 240 31.12  239.12 32  238 32  L 52.9999999999999 32  L 2 32  C 0.879999999999995 32  0 31.12  0 30  Z " fill-rule="nonzero" fill="#ffffff" stroke="none" transform="matrix(1 0 0 1 92 23 )" />
    <path d="M 0 30  L 0 2  C 0 0.879999999999999  0.879999999999995 0  2 0  L 238 0  C 239.12 0  240 0.879999999999999  240 2  L 240 30  C 240 31.12  239.12 32  238 32  L 52.9999999999999 32  L 2 32  C 0.879999999999995 32  0 31.12  0 30  Z " stroke-width="2" stroke="#d9d9d9" fill="none" transform="matrix(1 0 0 1 92 23 )" mask="url(#clip274)" />
  </g>
</svg>