<?xml version="1.0" standalone="no"?><!DOCTYPE svg PUBLIC "-//W3C//DTD SVG 1.1//EN" "http://www.w3.org/Graphics/SVG/1.1/DTD/svg11.dtd"><svg t="1621332208285" class="icon" viewBox="0 0 1024 1024" version="1.1" xmlns="http://www.w3.org/2000/svg" p-id="4717" xmlns:xlink="http://www.w3.org/1999/xlink" width="14" height="14"><defs><style type="text/css"></style></defs><path d="M806.09 904.43H219.64a119.21 119.21 0 0 1-119.26-119V309.7a119.21 119.21 0 0 1 119.26-119h43.12a31.66 31.66 0 1 1 0 63.32h-43.12a55.82 55.82 0 0 0-55.93 55.73v475.58a55.82 55.82 0 0 0 55.93 55.78h586.45a55.84 55.84 0 0 0 55.73-55.73V309.7a55.84 55.84 0 0 0-55.73-55.7H766.2a31.66 31.66 0 1 1 0-63.32h39.89a119.19 119.19 0 0 1 119.1 119v475.65a119.2 119.2 0 0 1-119.1 119.1z m0 0" p-id="4718"></path><path d="M608.46 254H413.21a31.66 31.66 0 1 1 0-63.32h195.25a31.66 31.66 0 0 1 0 63.32z m275.41 224h-742a31.66 31.66 0 1 1 0-63.32h742a31.66 31.66 0 1 1 0 63.32zM337 338.3a31.65 31.65 0 0 1-31.66-31.66v-154.2a31.66 31.66 0 0 1 63.32 0v154.2A31.66 31.66 0 0 1 337 338.3z m351.72 0a31.67 31.67 0 0 1-31.67-31.66v-154.2a31.67 31.67 0 0 1 63.33 0v154.2a31.67 31.67 0 0 1-31.66 31.66z m0 0" p-id="4719"></path></svg>