<?xml version="1.0" encoding="utf-8"?>
<svg version="1.1" xmlns:xlink="http://www.w3.org/1999/xlink" width="15px" height="15px" viewBox="530 721.5  15 15" xmlns="http://www.w3.org/2000/svg">
  <path d="M 537.5 721.5  C 541.7 721.5  545 724.8  545 729  C 545 733.2  541.7 736.5  537.5 736.5  C 533.3 736.5  530 733.2  530 729  C 530 724.8  533.3 721.5  537.5 721.5  Z " fill-rule="nonzero" fill="#f2f2f2" stroke="none" />
  <path d="M 537.5 722  C 541.42 722  544.5 725.08  544.5 729  C 544.5 732.92  541.42 736  537.5 736  C 533.58 736  530.5 732.92  530.5 729  C 530.5 725.08  533.58 722  537.5 722  Z " stroke-width="1" stroke="#cccccc" fill="none" />
  <path d="M 537.5 732.75  C 535.4 732.75  533.75 731.1  533.75 729  C 533.75 726.9  535.4 725.25  537.5 725.25  C 539.6 725.25  541.25 726.9  541.25 729  C 541.25 731.1  539.6 732.75  537.5 732.75  " fill-rule="nonzero" fill="#cccccc" stroke="none" />
</svg>