<?xml version="1.0" encoding="utf-8"?>
<svg version="1.1" xmlns:xlink="http://www.w3.org/1999/xlink" width="50px" height="25px" xmlns="http://www.w3.org/2000/svg">
  <g transform="matrix(1 0 0 1 -491 -339 )">
    <path d="M 492 342  A 2 2 0 0 1 494 340 L 538 340  A 2 2 0 0 1 540 342 L 540 361  A 2 2 0 0 1 538 363 L 494 363  A 2 2 0 0 1 492 361 L 492 342  Z " fill-rule="nonzero" fill="#f0f7ff" stroke="none" />
    <path d="M 491.5 342  A 2.5 2.5 0 0 1 494 339.5 L 538 339.5  A 2.5 2.5 0 0 1 540.5 342 L 540.5 361  A 2.5 2.5 0 0 1 538 363.5 L 494 363.5  A 2.5 2.5 0 0 1 491.5 361 L 491.5 342  Z " stroke-width="1" stroke="#7abbff" fill="none" stroke-opacity="0.996078431372549" />
  </g>
</svg>