<?xml version="1.0" encoding="utf-8"?>
<svg version="1.1" xmlns:xlink="http://www.w3.org/1999/xlink" width="50px" height="25px" xmlns="http://www.w3.org/2000/svg">
  <g transform="matrix(1 0 0 1 -491 -339 )">
    <path d="M 491.5 342  A 2.5 2.5 0 0 1 494 339.5 L 538 339.5  A 2.5 2.5 0 0 1 540.5 342 L 540.5 361  A 2.5 2.5 0 0 1 538 363.5 L 494 363.5  A 2.5 2.5 0 0 1 491.5 361 L 491.5 342  Z " fill-rule="nonzero" fill="#f0f7ff" stroke="none" />
    <path d="M 491.5 342  A 2.5 2.5 0 0 1 494 339.5 L 538 339.5  A 2.5 2.5 0 0 1 540.5 342 L 540.5 361  A 2.5 2.5 0 0 1 538 363.5 L 494 363.5  A 2.5 2.5 0 0 1 491.5 361 L 491.5 342  Z " stroke-width="1" stroke="#409eff" fill="none" />
  </g>
</svg>