<?xml version="1.0" encoding="utf-8"?>
<svg version="1.1" xmlns:xlink="http://www.w3.org/1999/xlink" width="528px" height="1135px" xmlns="http://www.w3.org/2000/svg">
  <g transform="matrix(1 0 0 1 -925 0 )">
    <path d="M 527.5 0  L 0.5 0  L 0.5 1128.61282660333  C 0 1131.62964370546  0.411134751773194 1134  0.934397163120461 1134.5  L 526.065602836879 1134.5  C 526.588865248227 1134  527 1131.62964370546  527.5 1128.61282660333  L 527.5 0  Z " fill-rule="nonzero" fill="#ffffff" stroke="none" transform="matrix(1 0 0 1 925 0 )" />
    <path d="M 0.5 0  L 0.5 1128.61282660333  C 0 1131.62964370546  0.411134751773194 1134  0.934397163120461 1134.5  L 526.065602836879 1134.5  C 526.588865248227 1134  527 1131.62964370546  527.5 1128.61282660333  L 527.5 0  " stroke-width="1" stroke="#e9e9e9" fill="none" transform="matrix(1 0 0 1 925 0 )" />
  </g>
</svg>