<?xml version="1.0" encoding="utf-8"?>
<svg version="1.1" xmlns:xlink="http://www.w3.org/1999/xlink" width="8px" height="8px" xmlns="http://www.w3.org/2000/svg">
  <g transform="matrix(1 0 0 1 -1136 -432 )">
    <path d="M 1140 432  C 1142.24 432  1144 433.76  1144 436  C 1144 438.24  1142.24 440  1140 440  C 1137.76 440  1136 438.24  1136 436  C 1136 433.76  1137.76 432  1140 432  Z " fill-rule="nonzero" fill="#ffffff" stroke="none" />
    <path d="M 1140 432.5  C 1141.96 432.5  1143.5 434.04  1143.5 436  C 1143.5 437.96  1141.96 439.5  1140 439.5  C 1138.04 439.5  1136.5 437.96  1136.5 436  C 1136.5 434.04  1138.04 432.5  1140 432.5  Z " stroke-width="1" stroke="#d9001b" fill="none" />
  </g>
</svg>